<mxfile host="drawio.benjamin-hacker.de" agent="Mozilla/5.0 (Windows NT 10.0; Win64; x64; rv:137.0) Gecko/20100101 Firefox/137.0" version="26.2.2">
  <diagram name="Page-1" id="wBdlQIouIhz5Xwdgnj0F">
    <mxGraphModel dx="1243" dy="668" grid="1" gridSize="10" guides="1" tooltips="1" connect="1" arrows="1" fold="1" page="1" pageScale="1" pageWidth="827" pageHeight="1169" math="0" shadow="0">
      <root>
        <mxCell id="0" />
        <mxCell id="1" parent="0" />
        <mxCell id="Dr6D4wt1tkrjQisyw7Ro-20" value="" style="rounded=0;whiteSpace=wrap;html=1;fillColor=default;strokeColor=light-dark(#d4d4d4, #ededed);opacity=80;" parent="1" vertex="1">
          <mxGeometry x="10" width="790" height="620" as="geometry" />
        </mxCell>
        <mxCell id="Dr6D4wt1tkrjQisyw7Ro-26" value="" style="endArrow=none;html=1;rounded=0;" parent="1" source="3b3fap4kVztS4zhXD_Z2-1" target="Dr6D4wt1tkrjQisyw7Ro-25" edge="1">
          <mxGeometry width="50" height="50" relative="1" as="geometry">
            <mxPoint x="219" y="189" as="sourcePoint" />
            <mxPoint x="384" y="286" as="targetPoint" />
          </mxGeometry>
        </mxCell>
        <mxCell id="Dr6D4wt1tkrjQisyw7Ro-1" value="" style="rounded=0;whiteSpace=wrap;html=1;fillColor=none;" parent="1" vertex="1">
          <mxGeometry x="309" y="70" width="401" height="520" as="geometry" />
        </mxCell>
        <mxCell id="Dr6D4wt1tkrjQisyw7Ro-2" value="Recruiting Management System" style="text;html=1;align=center;verticalAlign=middle;whiteSpace=wrap;rounded=0;" parent="1" vertex="1">
          <mxGeometry x="389" y="70" width="210" height="30" as="geometry" />
        </mxCell>
        <mxCell id="Dr6D4wt1tkrjQisyw7Ro-5" value="" style="endArrow=none;html=1;rounded=0;" parent="1" source="3b3fap4kVztS4zhXD_Z2-1" target="Dr6D4wt1tkrjQisyw7Ro-3" edge="1">
          <mxGeometry width="50" height="50" relative="1" as="geometry">
            <mxPoint x="479" y="330" as="sourcePoint" />
            <mxPoint x="529" y="280" as="targetPoint" />
          </mxGeometry>
        </mxCell>
        <mxCell id="Dr6D4wt1tkrjQisyw7Ro-10" value="" style="endArrow=none;html=1;rounded=0;" parent="1" source="3b3fap4kVztS4zhXD_Z2-1" target="Dr6D4wt1tkrjQisyw7Ro-9" edge="1">
          <mxGeometry width="50" height="50" relative="1" as="geometry">
            <mxPoint x="219" y="183" as="sourcePoint" />
            <mxPoint x="364" y="216" as="targetPoint" />
          </mxGeometry>
        </mxCell>
        <mxCell id="Dr6D4wt1tkrjQisyw7Ro-12" value="" style="endArrow=none;html=1;rounded=0;" parent="1" source="3b3fap4kVztS4zhXD_Z2-1" target="dq1shGyy8WxS3VZ5qKPD-2" edge="1">
          <mxGeometry width="50" height="50" relative="1" as="geometry">
            <mxPoint x="219" y="186" as="sourcePoint" />
            <mxPoint x="432" y="275" as="targetPoint" />
          </mxGeometry>
        </mxCell>
        <mxCell id="Dr6D4wt1tkrjQisyw7Ro-17" value="Determine position requirements" style="shape=ellipse;html=1;strokeWidth=2;fontStyle=1;whiteSpace=wrap;align=center;perimeter=ellipsePerimeter;" parent="1" vertex="1">
          <mxGeometry x="120" y="220" width="130" height="55" as="geometry" />
        </mxCell>
        <mxCell id="Dr6D4wt1tkrjQisyw7Ro-25" value="Archive completed job postings" style="shape=ellipse;html=1;strokeWidth=2;fontStyle=1;whiteSpace=wrap;align=center;perimeter=ellipsePerimeter;" parent="1" vertex="1">
          <mxGeometry x="350" y="440" width="138" height="60" as="geometry" />
        </mxCell>
        <mxCell id="Dr6D4wt1tkrjQisyw7Ro-27" value="Conduct interviews " style="shape=ellipse;html=1;strokeWidth=2;fontStyle=1;whiteSpace=wrap;align=center;perimeter=ellipsePerimeter;" parent="1" vertex="1">
          <mxGeometry x="40" y="330" width="138" height="60" as="geometry" />
        </mxCell>
        <mxCell id="Dr6D4wt1tkrjQisyw7Ro-28" value="" style="endArrow=none;html=1;rounded=0;" parent="1" source="3b3fap4kVztS4zhXD_Z2-2" target="Dr6D4wt1tkrjQisyw7Ro-27" edge="1">
          <mxGeometry width="50" height="50" relative="1" as="geometry">
            <mxPoint x="219" y="365" as="sourcePoint" />
            <mxPoint x="479" y="450" as="targetPoint" />
          </mxGeometry>
        </mxCell>
        <mxCell id="Dr6D4wt1tkrjQisyw7Ro-29" value="" style="endArrow=none;html=1;rounded=0;" parent="1" source="3b3fap4kVztS4zhXD_Z2-1" target="Dr6D4wt1tkrjQisyw7Ro-27" edge="1">
          <mxGeometry width="50" height="50" relative="1" as="geometry">
            <mxPoint x="189" y="345" as="sourcePoint" />
            <mxPoint x="157" y="313" as="targetPoint" />
          </mxGeometry>
        </mxCell>
        <mxCell id="Dr6D4wt1tkrjQisyw7Ro-33" value="" style="endArrow=none;html=1;rounded=0;" parent="1" source="Dr6D4wt1tkrjQisyw7Ro-9" target="Dr6D4wt1tkrjQisyw7Ro-30" edge="1">
          <mxGeometry width="50" height="50" relative="1" as="geometry">
            <mxPoint x="148" y="190" as="sourcePoint" />
            <mxPoint x="230" y="105" as="targetPoint" />
          </mxGeometry>
        </mxCell>
        <mxCell id="Dr6D4wt1tkrjQisyw7Ro-34" value="" style="endArrow=none;html=1;rounded=0;" parent="1" source="Dr6D4wt1tkrjQisyw7Ro-27" edge="1">
          <mxGeometry width="50" height="50" relative="1" as="geometry">
            <mxPoint x="194" y="163" as="sourcePoint" />
            <mxPoint x="105" y="150" as="targetPoint" />
          </mxGeometry>
        </mxCell>
        <mxCell id="Dr6D4wt1tkrjQisyw7Ro-3" value="Schedule job posting" style="shape=ellipse;html=1;strokeWidth=2;fontStyle=1;whiteSpace=wrap;align=center;perimeter=ellipsePerimeter;" parent="1" vertex="1">
          <mxGeometry x="454.5" y="180" width="110" height="55" as="geometry" />
        </mxCell>
        <mxCell id="Dr6D4wt1tkrjQisyw7Ro-48" value="" style="endArrow=none;html=1;rounded=0;" parent="1" source="Dr6D4wt1tkrjQisyw7Ro-30" target="dq1shGyy8WxS3VZ5qKPD-2" edge="1">
          <mxGeometry width="50" height="50" relative="1" as="geometry">
            <mxPoint x="250" y="375" as="sourcePoint" />
            <mxPoint x="370" y="335" as="targetPoint" />
          </mxGeometry>
        </mxCell>
        <mxCell id="Dr6D4wt1tkrjQisyw7Ro-9" value="Document position requirements" style="shape=ellipse;html=1;strokeWidth=2;fontStyle=1;whiteSpace=wrap;align=center;perimeter=ellipsePerimeter;" parent="1" vertex="1">
          <mxGeometry x="330" y="100" width="130" height="55" as="geometry" />
        </mxCell>
        <mxCell id="Dr6D4wt1tkrjQisyw7Ro-62" value="&amp;lt;&amp;lt;include&amp;gt;&amp;gt;" style="edgeStyle=none;html=1;endArrow=open;verticalAlign=bottom;dashed=1;labelBackgroundColor=none;rounded=0;" parent="1" source="Dr6D4wt1tkrjQisyw7Ro-9" target="Dr6D4wt1tkrjQisyw7Ro-17" edge="1">
          <mxGeometry width="160" relative="1" as="geometry">
            <mxPoint x="310" y="330" as="sourcePoint" />
            <mxPoint x="470" y="330" as="targetPoint" />
          </mxGeometry>
        </mxCell>
        <mxCell id="Dr6D4wt1tkrjQisyw7Ro-63" value="&amp;lt;&amp;lt;include&amp;gt;&amp;gt;" style="edgeStyle=none;html=1;endArrow=open;verticalAlign=bottom;dashed=1;labelBackgroundColor=none;rounded=0;" parent="1" source="Dr6D4wt1tkrjQisyw7Ro-3" target="Dr6D4wt1tkrjQisyw7Ro-31" edge="1">
          <mxGeometry x="-0.2623" y="-3" width="160" relative="1" as="geometry">
            <mxPoint x="310" y="330" as="sourcePoint" />
            <mxPoint x="470" y="330" as="targetPoint" />
            <mxPoint as="offset" />
          </mxGeometry>
        </mxCell>
        <mxCell id="Dr6D4wt1tkrjQisyw7Ro-16" value="" style="endArrow=none;html=1;rounded=0;" parent="1" source="3b3fap4kVztS4zhXD_Z2-2" target="Dr6D4wt1tkrjQisyw7Ro-11" edge="1">
          <mxGeometry width="50" height="50" relative="1" as="geometry">
            <mxPoint x="219" y="364" as="sourcePoint" />
            <mxPoint x="427.0743744745621" y="520.8781652717319" as="targetPoint" />
          </mxGeometry>
        </mxCell>
        <mxCell id="Dr6D4wt1tkrjQisyw7Ro-86" value="Notify the applicant of their rejection" style="shape=ellipse;html=1;strokeWidth=2;fontStyle=1;whiteSpace=wrap;align=center;perimeter=ellipsePerimeter;" parent="1" vertex="1">
          <mxGeometry x="549" y="525" width="148" height="60" as="geometry" />
        </mxCell>
        <mxCell id="Dr6D4wt1tkrjQisyw7Ro-87" value="&amp;lt;&amp;lt;include&amp;gt;&amp;gt;" style="edgeStyle=none;html=1;endArrow=open;verticalAlign=bottom;dashed=1;labelBackgroundColor=none;rounded=0;" parent="1" source="Dr6D4wt1tkrjQisyw7Ro-7" target="Dr6D4wt1tkrjQisyw7Ro-86" edge="1">
          <mxGeometry width="160" relative="1" as="geometry">
            <mxPoint x="481" y="509" as="sourcePoint" />
            <mxPoint x="566" y="492" as="targetPoint" />
          </mxGeometry>
        </mxCell>
        <mxCell id="3b3fap4kVztS4zhXD_Z2-2" value="&lt;span lang=&quot;en&quot; class=&quot;HwtZe&quot;&gt;&lt;span class=&quot;jCAhz ChMk0b&quot;&gt;&lt;span class=&quot;ryNqvb&quot;&gt;Applicant&lt;/span&gt;&lt;/span&gt;&lt;/span&gt;" style="shape=umlActor;verticalLabelPosition=bottom;verticalAlign=top;html=1;outlineConnect=0;" parent="1" vertex="1">
          <mxGeometry x="160" y="470" width="30" height="60" as="geometry" />
        </mxCell>
        <mxCell id="3b3fap4kVztS4zhXD_Z2-1" value="&lt;div&gt;HR Recruiter&lt;/div&gt;" style="shape=umlActor;verticalLabelPosition=bottom;verticalAlign=top;html=1;outlineConnect=0;" parent="1" vertex="1">
          <mxGeometry x="210" y="340" width="30" height="60" as="geometry" />
        </mxCell>
        <mxCell id="Dr6D4wt1tkrjQisyw7Ro-8" value="" style="endArrow=none;html=1;rounded=0;" parent="1" source="3b3fap4kVztS4zhXD_Z2-1" target="Dr6D4wt1tkrjQisyw7Ro-7" edge="1">
          <mxGeometry width="50" height="50" relative="1" as="geometry">
            <mxPoint x="219" y="179" as="sourcePoint" />
            <mxPoint x="359" y="171" as="targetPoint" />
          </mxGeometry>
        </mxCell>
        <mxCell id="Dr6D4wt1tkrjQisyw7Ro-30" value="Hiring Manager" style="shape=umlActor;html=1;verticalLabelPosition=bottom;verticalAlign=top;align=center;" parent="1" vertex="1">
          <mxGeometry x="90" y="60" width="30" height="60" as="geometry" />
        </mxCell>
        <mxCell id="Dr6D4wt1tkrjQisyw7Ro-31" value="QA for&lt;br&gt;Job Posting" style="shape=ellipse;html=1;strokeWidth=2;fontStyle=1;whiteSpace=wrap;align=center;perimeter=ellipsePerimeter;" parent="1" vertex="1">
          <mxGeometry x="587" y="100" width="110" height="55" as="geometry" />
        </mxCell>
        <mxCell id="Dr6D4wt1tkrjQisyw7Ro-38" value="View a single job posting" style="shape=ellipse;html=1;strokeWidth=2;fontStyle=1;whiteSpace=wrap;align=center;perimeter=ellipsePerimeter;" parent="1" vertex="1">
          <mxGeometry x="320" y="185" width="120" height="65" as="geometry" />
        </mxCell>
        <mxCell id="Dr6D4wt1tkrjQisyw7Ro-39" value="" style="endArrow=none;html=1;rounded=0;" parent="1" source="Dr6D4wt1tkrjQisyw7Ro-30" target="Dr6D4wt1tkrjQisyw7Ro-38" edge="1">
          <mxGeometry width="50" height="50" relative="1" as="geometry">
            <mxPoint x="130" y="110" as="sourcePoint" />
            <mxPoint x="367" y="261" as="targetPoint" />
          </mxGeometry>
        </mxCell>
        <mxCell id="Dr6D4wt1tkrjQisyw7Ro-40" value="" style="endArrow=none;html=1;rounded=0;" parent="1" source="3b3fap4kVztS4zhXD_Z2-1" target="Dr6D4wt1tkrjQisyw7Ro-38" edge="1">
          <mxGeometry width="50" height="50" relative="1" as="geometry">
            <mxPoint x="130" y="105" as="sourcePoint" />
            <mxPoint x="420" y="210" as="targetPoint" />
          </mxGeometry>
        </mxCell>
        <mxCell id="Dr6D4wt1tkrjQisyw7Ro-7" value="Screen applications" style="shape=ellipse;html=1;strokeWidth=2;fontStyle=1;whiteSpace=wrap;align=center;perimeter=ellipsePerimeter;" parent="1" vertex="1">
          <mxGeometry x="341" y="525" width="126" height="60" as="geometry" />
        </mxCell>
        <mxCell id="Dr6D4wt1tkrjQisyw7Ro-59" value="" style="endArrow=none;html=1;rounded=0;" parent="1" source="3b3fap4kVztS4zhXD_Z2-2" target="Dr6D4wt1tkrjQisyw7Ro-38" edge="1">
          <mxGeometry width="50" height="50" relative="1" as="geometry">
            <mxPoint x="240" y="509" as="sourcePoint" />
            <mxPoint x="331" y="502" as="targetPoint" />
          </mxGeometry>
        </mxCell>
        <mxCell id="Dr6D4wt1tkrjQisyw7Ro-4" value="Apply to job posting" style="shape=ellipse;html=1;strokeWidth=2;fontStyle=1;whiteSpace=wrap;align=center;perimeter=ellipsePerimeter;" parent="1" vertex="1">
          <mxGeometry x="488" y="260" width="110" height="55" as="geometry" />
        </mxCell>
        <mxCell id="Dr6D4wt1tkrjQisyw7Ro-60" value="&amp;lt;&amp;lt;extend&amp;gt;&amp;gt;" style="edgeStyle=none;html=1;startArrow=open;endArrow=none;startSize=12;verticalAlign=bottom;dashed=1;labelBackgroundColor=none;rounded=0;" parent="1" source="Dr6D4wt1tkrjQisyw7Ro-38" target="Dr6D4wt1tkrjQisyw7Ro-4" edge="1">
          <mxGeometry x="0.3897" y="-22" width="160" relative="1" as="geometry">
            <mxPoint x="310" y="350" as="sourcePoint" />
            <mxPoint x="470" y="350" as="targetPoint" />
            <mxPoint as="offset" />
          </mxGeometry>
        </mxCell>
        <mxCell id="Dr6D4wt1tkrjQisyw7Ro-13" value="Invite applicant to job interview" style="shape=ellipse;html=1;strokeWidth=2;fontStyle=1;whiteSpace=wrap;align=center;perimeter=ellipsePerimeter;" parent="1" vertex="1">
          <mxGeometry x="550" y="440" width="138" height="60" as="geometry" />
        </mxCell>
        <mxCell id="Dr6D4wt1tkrjQisyw7Ro-64" value="&amp;lt;&amp;lt;include&amp;gt;&amp;gt;" style="edgeStyle=none;html=1;endArrow=open;verticalAlign=bottom;dashed=1;labelBackgroundColor=none;rounded=0;" parent="1" source="Dr6D4wt1tkrjQisyw7Ro-7" target="Dr6D4wt1tkrjQisyw7Ro-13" edge="1">
          <mxGeometry width="160" relative="1" as="geometry">
            <mxPoint x="310" y="330" as="sourcePoint" />
            <mxPoint x="470" y="330" as="targetPoint" />
          </mxGeometry>
        </mxCell>
        <mxCell id="dq1shGyy8WxS3VZ5qKPD-1" value="&lt;div style=&quot;color: rgb(59, 59, 59); background-color: rgb(255, 255, 255); font-family: Consolas, &amp;quot;Courier New&amp;quot;, monospace; font-weight: normal; font-size: 14px; line-height: 19px; white-space: pre;&quot;&gt;&lt;div&gt;&lt;span style=&quot;color: rgb(163, 21, 21);&quot;&gt;Use Case diagramm - Recruiting Management System&lt;/span&gt;&lt;/div&gt;&lt;/div&gt;" style="text;html=1;align=center;verticalAlign=middle;whiteSpace=wrap;rounded=0;" vertex="1" parent="1">
          <mxGeometry x="10" width="790" height="30" as="geometry" />
        </mxCell>
        <mxCell id="dq1shGyy8WxS3VZ5qKPD-3" value="" style="endArrow=none;html=1;rounded=0;" edge="1" parent="1" source="3b3fap4kVztS4zhXD_Z2-2" target="Dr6D4wt1tkrjQisyw7Ro-4">
          <mxGeometry width="50" height="50" relative="1" as="geometry">
            <mxPoint x="200" y="504" as="sourcePoint" />
            <mxPoint x="367" y="435" as="targetPoint" />
          </mxGeometry>
        </mxCell>
        <mxCell id="Dr6D4wt1tkrjQisyw7Ro-11" value="&lt;div&gt;List available job postings&lt;/div&gt;" style="shape=ellipse;html=1;strokeWidth=2;fontStyle=1;whiteSpace=wrap;align=center;perimeter=ellipsePerimeter;" parent="1" vertex="1">
          <mxGeometry x="389" y="370" width="110" height="55" as="geometry" />
        </mxCell>
        <mxCell id="dq1shGyy8WxS3VZ5qKPD-5" value="&amp;lt;&amp;lt;include&amp;gt;&amp;gt;" style="edgeStyle=none;html=1;endArrow=open;verticalAlign=bottom;dashed=1;labelBackgroundColor=none;rounded=0;" edge="1" parent="1" source="Dr6D4wt1tkrjQisyw7Ro-38" target="dq1shGyy8WxS3VZ5qKPD-2">
          <mxGeometry x="0.4661" y="7" width="160" relative="1" as="geometry">
            <mxPoint x="546" y="184" as="sourcePoint" />
            <mxPoint x="611" y="156" as="targetPoint" />
            <mxPoint as="offset" />
          </mxGeometry>
        </mxCell>
        <mxCell id="dq1shGyy8WxS3VZ5qKPD-2" value="&lt;div&gt;List job postings&lt;/div&gt;" style="shape=ellipse;html=1;strokeWidth=2;fontStyle=1;whiteSpace=wrap;align=center;perimeter=ellipsePerimeter;" vertex="1" parent="1">
          <mxGeometry x="340" y="302.5" width="110" height="55" as="geometry" />
        </mxCell>
      </root>
    </mxGraphModel>
  </diagram>
</mxfile>
